<?xml version="1.0" encoding="UTF-8"?>
<svg xmlns="http://www.w3.org/2000/svg" xmlns:xlink="http://www.w3.org/1999/xlink" width="16px" height="16px" viewBox="0 0 16 16" version="1.1">
    <g id="surface1">
        <path style="fill:none;stroke-width:2;stroke-linecap:round;stroke-linejoin:round;stroke:rgb(0%,0%,0%);stroke-opacity:1;stroke-miterlimit:4;" d="M 12 16.998047 L 12.011719 16.998047 " transform="matrix(0.666667,0,0,0.666667,0,0)"/>
        <path style="fill:none;stroke-width:2;stroke-linecap:round;stroke-linejoin:round;stroke:rgb(0%,0%,0%);stroke-opacity:1;stroke-miterlimit:4;" d="M 15 1.998047 L 6 1.998047 C 4.892578 1.998047 4.001953 2.894531 4.001953 4.001953 L 4.001953 19.998047 C 4.001953 21.105469 4.892578 22.001953 6 22.001953 L 18 22.001953 C 19.107422 22.001953 19.998047 21.105469 19.998047 19.998047 L 19.998047 7.001953 Z M 15 1.998047 " transform="matrix(0.666667,0,0,0.666667,0,0)"/>
        <path style="fill:none;stroke-width:2;stroke-linecap:round;stroke-linejoin:round;stroke:rgb(0%,0%,0%);stroke-opacity:1;stroke-miterlimit:4;" d="M 9.099609 9 C 9.597656 7.634766 10.998047 6.820312 12.427734 7.066406 C 13.857422 7.3125 14.90625 8.548828 14.917969 10.001953 C 14.917969 12 11.917969 13.001953 11.917969 13.001953 " transform="matrix(0.666667,0,0,0.666667,0,0)"/>
    </g>
</svg>
